<?xml version="1.0" encoding="UTF-8" standalone="no"?>
<!DOCTYPE svg PUBLIC "-//W3C//DTD SVG 1.1//EN" "http://www.w3.org/Graphics/SVG/1.1/DTD/svg11.dtd">
<svg width="100%" height="100%" viewBox="0 0 2064 1030" version="1.1" xmlns="http://www.w3.org/2000/svg" xmlns:xlink="http://www.w3.org/1999/xlink" xml:space="preserve" xmlns:serif="http://www.serif.com/" style="fill-rule:evenodd;clip-rule:evenodd;stroke-linejoin:round;stroke-miterlimit:2;">
    <g id="Layer2" transform="matrix(1.003972,0,0,1.003972,-0.588708,-520.63437)">
        <g id="point-range" transform="matrix(0,-1,1,0,-521.990133,2583.246221)">
            <g id="Total" transform="matrix(0,1.103244,-1.103244,0,2534.636382,304.328163)">
                <path d="M1523.904,514.235L1180.141,1251.436C1163.994,1243.907 1146.393,1240.005 1128.577,1240.005C1110.76,1240.005 1093.16,1243.907 1077.012,1251.436L733.25,514.235C857.046,456.508 991.983,426.593 1128.577,426.593C1265.171,426.593 1400.107,456.508 1523.904,514.235Z" style="fill:rgb(255,159,76);"/>
            </g>
            <g id="side1" transform="matrix(0,1.103244,-1.103244,0,2534.636382,303.328204)">
                <path d="M1523.904,514.235L1180.141,1251.436C1173.704,1248.435 1167.017,1246.001 1160.156,1244.162L1370.682,458.467C1423.282,472.561 1474.55,491.221 1523.904,514.235Z" style="fill:rgb(255,119,0);"/>
            </g>
            <g id="side2" transform="matrix(0,1.103244,-1.103244,0,2534.636382,303.328204)">
                <path d="M886.471,458.467L1096.998,1244.162C1090.137,1246.001 1083.45,1248.435 1077.012,1251.436L733.25,514.235C782.603,491.221 833.872,472.561 886.471,458.467Z" style="fill:rgb(255,119,0);"/>
            </g>
            <g id="mid1" transform="matrix(0,1.103244,-1.103244,0,2534.636382,303.328204)">
                <path d="M1047.049,430.153L1117.943,1240.469C1110.867,1241.088 1103.859,1242.324 1096.998,1244.162L886.471,458.467C939.071,444.373 992.801,434.899 1047.049,430.153Z" style="fill:rgb(144,0,8);"/>
            </g>
            <g id="mid2" transform="matrix(0,1.103244,-1.103244,0,2534.636382,303.328204)">
                <path d="M1370.682,458.467L1160.156,1244.162C1153.295,1242.324 1146.287,1241.088 1139.211,1240.469L1210.104,430.153C1264.352,434.899 1318.082,444.373 1370.682,458.467Z" style="fill:rgb(144,0,8);"/>
            </g>
        </g>
    </g>
    <g id="wave-game" transform="matrix(1,0,0,0.373974,0,0)">
        <rect x="0" y="0" width="2064" height="2752" style="fill:none;"/>
    </g>
</svg>
